<?xml version="1.0" standalone="no"?>
<!DOCTYPE svg PUBLIC "-//W3C//DTD SVG 1.1//EN" "http://www.w3.org/Graphics/SVG/1.1/DTD/svg11.dtd" >
<svg xmlns="http://www.w3.org/2000/svg" xmlns:xlink="http://www.w3.org/1999/xlink" version="1.1">
<metadata>
Created by FontForge 20160405 at Mon May 13 07:36:43 2019
 By www-data
</metadata>
<defs>
<font id="Dissolvelight" horiz-adv-x="500" >
  <font-face 
    font-family="Dissolve light"
    font-weight="400"
    font-stretch="normal"
    units-per-em="1000"
    panose-1="0 0 0 0 0 0 0 0 0 0"
    ascent="750"
    descent="-250"
    x-height="499"
    cap-height="757"
    bbox="-2 -253 811 768"
    underline-thickness="50"
    underline-position="-150"
    unicode-range="U+0020-20AC"
  />
<missing-glyph 
 />
    <glyph glyph-name=".notdef" 
 />
    <glyph glyph-name=".null" horiz-adv-x="0" 
 />
    <glyph glyph-name="nonmarkingreturn" horiz-adv-x="333" 
 />
    <glyph glyph-name="space" unicode=" " horiz-adv-x="297" 
 />
    <glyph glyph-name="exclam" unicode="!" horiz-adv-x="145" 
d="M49 199h-49v558h49v-558zM53 1h-53v60h53v-60z" />
    <glyph glyph-name="quotesingle" unicode="'" 
 />
    <glyph glyph-name="comma" unicode="," horiz-adv-x="142" 
d="M0 67h62v-67l-62 -71l18 71h-18v67z" />
    <glyph glyph-name="hyphen" unicode="-" horiz-adv-x="410" 
d="M0 310h356v-67h-356v67z" />
    <glyph glyph-name="period" unicode="." horiz-adv-x="125" 
d="M0 67h62v-67h-62v67z" />
    <glyph glyph-name="slash" unicode="/" 
 />
    <glyph glyph-name="zero" unicode="0" horiz-adv-x="589" 
d="M256 0q-53 0 -99 20t-81 55t-55 81.5t-20 99.5v255q0 53 20 99.5t55 81t81 54.5t99 20t99.5 -20t81.5 -54.5t55 -81t20 -99.5v-255h-51v255q0 42 -16 79t-44 65t-65.5 44t-79.5 16t-79 -16t-65 -44t-44 -65t-16 -79v-255q0 -42 16 -79.5t44 -65.5t65 -44t79 -16v-51z" />
    <glyph glyph-name="one" unicode="1" horiz-adv-x="283" 
d="M157 767h51v-767h-51v692l-120 -120l-36 36l156 159v0v0z" />
    <glyph glyph-name="two" unicode="2" horiz-adv-x="589" 
d="M255 766q52 0 98.5 -20t81.5 -54.5t55 -81t20 -99.5q0 -54 -21 -100.5t-56 -83.5l-357 -326h-74l397 365q29 27 45 65t16 80t-16.5 79t-44 65t-65 44t-79.5 16t-79 -16t-65 -44t-44 -65t-16 -79h-51q0 53 20 99.5t55 81t81 54.5t99 20z" />
    <glyph glyph-name="three" unicode="3" horiz-adv-x="530" 
d="M320 440q30 -14 55 -35t43 -48.5t28 -59.5t10 -66q0 -48 -18 -90t-49.5 -73t-73 -49t-89.5 -18q-41 0 -78 13.5t-67 37.5t-50.5 57t-29.5 71h54q7 -28 23.5 -51.5t39 -40.5t50 -26.5t58.5 -9.5q37 0 69.5 14t56.5 38t38 56.5t14 70.5q0 37 -14 69.5t-38 57t-56.5 38.5
t-69.5 14v51q27 0 50 10t40 27t27 40t10 50h51q0 -48 -23 -86.5t-61 -61.5z" />
    <glyph glyph-name="four" unicode="4" horiz-adv-x="625" 
d="M548 731l-423 -424h423v-51v-255h-52v255h-203h-220h-71l510 510l36 -35v0z" />
    <glyph glyph-name="five" unicode="5" horiz-adv-x="590" 
d="M459 257q0 37 -12 70.5t-34 60t-51.5 44t-65.5 23.5q-18 6 -39 6q-57 0 -104 -28t-73 -74h-80v357v51h510v-51h-459v-306q35 46 87.5 74t116.5 28q52 0 98.5 -20t81.5 -55t55 -81.5t20 -98.5h-51v0z" />
    <glyph glyph-name="six" unicode="6" horiz-adv-x="587" 
d="M513 255q0 -53 -20.5 -99.5t-55.5 -81.5t-81.5 -55t-99.5 -20t-99.5 20t-81.5 55t-55 81.5t-20 99.5q0 54 21 101t55 82l359 330h75l-397 -367q-29 -29 -45.5 -66t-16.5 -80q0 -38 12.5 -71t34 -60t51.5 -45.5t66 -25.5q10 -2 19.5 -2.5t19.5 -0.5q43 0 81 16.5t66 44.5
t44 66t16 81q0 42 -15.5 79t-43.5 64l37 37q34 -35 54 -82t20 -101z" />
    <glyph glyph-name="seven" unicode="7" horiz-adv-x="715" 
d="M2 765h638v-56l-572 -709h-66l574 715h-574v50v0z" />
    <glyph glyph-name="eight" unicode="8" horiz-adv-x="535" 
d="M0 229q0 69 37 125.5t98 83.5q-38 23 -61 63t-23 88q0 37 14 69.5t38 56.5t56.5 38t70.5 14q37 0 69.5 -14t56.5 -38t38 -56.5t14 -69.5q0 -48 -23 -88t-61 -63q29 -14 54 -35t43 -48.5t28 -59.5t10 -66h-51q0 37 -14 69.5t-38 56.5t-56.5 38t-69.5 14q-38 0 -70.5 -14
t-56.5 -38t-38 -56.5t-14 -69.5h-51zM102 586q0 -27 10 -50t27 -40t40.5 -27t50.5 -10t50 10t40 27t27 40t10 50t-10 50t-27 40t-40 27t-50 10t-50.5 -10t-40.5 -27t-27 -40t-10 -50z" />
    <glyph glyph-name="nine" unicode="9" horiz-adv-x="590" 
d="M255 768q53 0 99.5 -20t81.5 -55t55.5 -81.5t20.5 -98.5v-512h-52v358v154q0 37 -12.5 70.5t-34 59.5t-51.5 44t-66 24q-9 3 -18.5 5t-18.5 2q-43 0 -81 -16.5t-66 -45t-44.5 -66.5t-16.5 -80t16 -79.5t43 -66.5l-36 -33q-35 35 -54.5 81.5t-19.5 100.5q0 52 20 98.5
t55 81.5t81 55t99 20z" />
    <glyph glyph-name="colon" unicode=":" horiz-adv-x="141" 
d="M0 488h62v-67h-62v67zM0 67h62v-67h-62v67z" />
    <glyph glyph-name="semicolon" unicode=";" horiz-adv-x="141" 
d="M0 483h62v-67h-62v67zM0 67h62v-67l-62 -71l18 71h-18v67z" />
    <glyph glyph-name="question" unicode="?" horiz-adv-x="549" 
d="M0 505q0 27 11 69.5t39 83t77 70t124 29.5q69 0 117 -27t77.5 -66t43 -82.5t13.5 -76.5q0 -60 -24 -107t-59 -78.5t-74 -48t-69 -16.5v-126h-50v175h50q22 0 52.5 14t58 40t46.5 63t19 84q0 27 -11.5 61.5t-35.5 66t-62 53t-92 21.5q-34 0 -60.5 -9t-47 -23t-35.5 -32
t-25 -37q-25 -45 -33 -101q-14 -1 -25 -1h-17.5t-7.5 1z" />
    <glyph glyph-name="A" unicode="A" horiz-adv-x="721" 
d="M2 1l305 756h49l303 -756h-59l-268 684l-269 -684h-61v0z" />
    <glyph glyph-name="B" unicode="B" horiz-adv-x="625" 
d="M324 750q33 0 64 -13.5t55 -37t38.5 -56t14.5 -69.5q0 -41 -12.5 -72t-26.5 -52q-17 -25 -38 -43q36 -14 64 -40q24 -23 44 -61t20 -97q0 -41 -9.5 -71.5t-25.5 -52.5t-36 -37t-41 -24q-49 -22 -111 -23h-324v50h298q55 0 98 16q18 7 36 17.5t32 26.5t22.5 37.5t9.5 50.5
q0 35 -7 61t-19 45t-27.5 31.5t-31.5 20.5q-38 18 -87 19h-324v50h298q41 -1 74 14q14 6 27.5 16.5t24 26.5t17 38.5t6.5 52.5q0 24 -11 47t-33.5 41t-55.5 29t-76 11q-22 0 -66.5 -0.5t-90.5 -1.5q-54 -1 -114 -1v51h324z" />
    <glyph glyph-name="C" unicode="C" horiz-adv-x="753" 
d="M50 379q0 -68 25.5 -128t70 -104.5t104.5 -70t128 -25.5v-50q-79 0 -148 29.5t-120 80.5t-80.5 120t-29.5 148q0 78 29.5 147t80.5 120t120 80.5t148 29.5q93 0 171.5 -41.5t129.5 -109.5l-40 -30q-44 59 -112 95t-149 36q-68 0 -128 -25.5t-104.5 -70t-70 -104
t-25.5 -127.5z" />
    <glyph glyph-name="D" unicode="D" horiz-adv-x="625" 
d="M-1 756h199q55 0 117.5 -25.5t115 -74.5t87 -119t34.5 -159q0 -81 -30.5 -149.5t-80.5 -119t-113.5 -79t-129.5 -28.5h-23v51q59 0 117.5 26t105 70t75 103.5t28.5 125.5q0 57 -23 115t-65.5 105t-103 77t-134.5 30h-176v51z" />
    <glyph glyph-name="E" unicode="E" horiz-adv-x="669" 
d="M604 755v-50h-605v50h605zM604 353h-540v-301h528v-50h-578v35v316v51h590v-51z" />
    <glyph glyph-name="F" unicode="F" horiz-adv-x="671" 
d="M605 355h-554v-352h-50v402h604v-50zM605 758v-50h-604v50h604z" />
    <glyph glyph-name="G" unicode="G" horiz-adv-x="755" 
d="M0 378q0 64 24 131t71.5 121.5t118.5 89.5t165 35v-50q-60 0 -119 -26.5t-105.5 -71.5t-75.5 -104t-29 -125q0 -80 30 -141.5t77.5 -103.5t106 -63.5t115.5 -20.5h252v329h50v-329v-50h-302q-30 0 -70 8t-82 25.5t-83 46.5t-73 71t-51.5 98.5t-19.5 129.5z" />
    <glyph glyph-name="H" unicode="H" horiz-adv-x="674" 
d="M3 422h544v325h53v-368v-378h-53v369h-544v52v0z" />
    <glyph glyph-name="I" unicode="I" horiz-adv-x="126" 
d="M51 757v-756h-51v756h51v0z" />
    <glyph glyph-name="J" unicode="J" horiz-adv-x="627" 
d="M551 758v-502q0 -48 -11 -84t-28.5 -62.5t-40 -44.5t-46.5 -30q-55 -28 -125 -32h-301v50h301q13 0 33 2.5t42.5 10.5t45 22t40.5 36.5t29 55t11 76.5v502h50z" />
    <glyph glyph-name="K" unicode="K" horiz-adv-x="624" 
d="M555 1h-83l-422 323v-323h-50v756h50l-3 -365l508 -391v0z" />
    <glyph glyph-name="L" unicode="L" horiz-adv-x="474" 
d="M400 0h-400v750h53v-697h347v-53z" />
    <glyph glyph-name="M" unicode="M" horiz-adv-x="831" 
d="M1 0v756h55l324 -404l314 404h63v0l-352 -454h-52l-302 379v-681h-50v0z" />
    <glyph glyph-name="N" unicode="N" horiz-adv-x="676" 
d="M-1 0v759h51l553 -759h-21h-43l-489 672v-672h-51v0z" />
    <glyph glyph-name="O" unicode="O" horiz-adv-x="826" 
d="M377 756q78 0 147 -29.5t120.5 -81t81 -120.5t29.5 -147t-29.5 -147t-81 -120.5t-120.5 -81t-147 -29.5v50q68 0 128 25.5t104.5 70t70 104.5t25.5 128t-25.5 128t-70 104.5t-104.5 70t-128 25.5t-128 -25.5t-104.5 -70t-70 -104.5t-25.5 -128h-50q0 78 29.5 147
t81 120.5t120.5 81t147 29.5z" />
    <glyph glyph-name="P" unicode="P" horiz-adv-x="626" 
d="M272 749q50 0 100 -16t90.5 -47.5t66 -77.5t25.5 -106q0 -52 -23 -98t-62 -80.5t-90 -54.5t-107 -20h-219v-247h-53v299h272q30 0 68 10.5t71.5 34t57 62t23.5 94.5q0 53 -25.5 90.5t-61 61t-73 34t-60.5 10.5h-272v51h272z" />
    <glyph glyph-name="Q" unicode="Q" horiz-adv-x="843" 
d="M653 646q58 -57 86 -125.5t28.5 -138t-24 -136.5t-72.5 -122l-37 -36l-180 182l35 34l145 -145q37 46 57 105t19 120.5t-23.5 120.5t-69.5 106q-45 45 -104 70.5t-123 27t-127 -22t-115 -75.5q-42 -42 -67 -100t-28 -122.5t19 -129t76 -118.5l-36 -35q-57 57 -85 128.5
t-27 145t29 143t83 123.5q67 67 142.5 92.5t149 20.5t138.5 -36t111 -77z" />
    <glyph glyph-name="R" unicode="R" horiz-adv-x="626" 
d="M0 756h278q48 0 97 -15.5t89 -47t65.5 -78.5t25.5 -110q0 -52 -22.5 -98t-60.5 -80.5t-88.5 -54.5t-105.5 -20h-139l416 -253h-94l-405 248v55h222q30 0 68.5 11.5t72.5 36t57 63t23 92.5q0 55 -26 93.5t-61.5 62.5t-73 35t-60.5 11h-278v49z" />
    <glyph glyph-name="S" unicode="S" horiz-adv-x="627" 
d="M555 705h-278q-112 0 -169.5 -40.5t-57.5 -110.5q0 -47 20.5 -76t52.5 -46t72.5 -23t81.5 -6h76q47 0 84.5 -18t63.5 -47t40 -65t14 -72q0 -41 -15.5 -77.5t-42.5 -64.5t-64 -44t-80 -16h-76v50h76q31 1 58.5 12t48.5 31t33 47.5t12 61.5q0 35 -13.5 63t-35 47.5t-49 30
t-54.5 10.5h-76q-23 1 -52 2t-60 6.5t-60.5 17.5t-52.5 34.5t-37.5 56.5t-14.5 85q0 60 25 99.5t64.5 62t89 31.5t98.5 9h278v-51z" />
    <glyph glyph-name="T" unicode="T" horiz-adv-x="526" 
d="M4 755h451v-753h-50v703h-401v50v0z" />
    <glyph glyph-name="U" unicode="U" horiz-adv-x="676" 
d="M50 757v-455q0 -62 18 -109t51 -79t80 -48.5t104 -16.5q51 0 97 16t80.5 47.5t55 79t20.5 110.5v94h51v-94q0 -144 -79.5 -223.5t-224.5 -79.5q-60 0 -114.5 17.5t-96.5 54.5t-67 94t-25 137v455h50z" />
    <glyph glyph-name="V" unicode="V" horiz-adv-x="585" 
d="M352 -1h-54l-299 749h53l273 -679l132 336h53z" />
    <glyph glyph-name="W" unicode="W" horiz-adv-x="886" 
d="M806 427l-161 -428h-34l-158 379l-155 -379h-36l-257 759h56l224 -665l136 337h61l145 -342l126 339h53v0z" />
    <glyph glyph-name="X" unicode="X" horiz-adv-x="726" 
d="M0 756h61l588 -755h-60l-269 342l-255 -342h-63l290 383l-292 372v0z" />
    <glyph glyph-name="Y" unicode="Y" horiz-adv-x="376" 
d="M51 282v-281h-49v306l257 397h49z" />
    <glyph glyph-name="Z" unicode="Z" horiz-adv-x="705" 
d="M1 2v56l563 698h65l-565 -703h565v-51h-628z" />
    <glyph glyph-name="underscore" unicode="_" 
d="M402 301h-401v42h401v-42z" />
    <glyph glyph-name="a" unicode="a" horiz-adv-x="575" 
d="M450 0v248q0 40 -14.5 76t-41 63.5t-63 43.5t-80.5 16q-42 0 -78 -17t-62.5 -45t-42 -64t-15.5 -73t17 -72.5t45 -63.5t63.5 -45t72.5 -17v-50q-51 0 -96 19.5t-79 53.5t-53.5 79t-19.5 96q0 49 18 94t50.5 79.5t78 55t101.5 20.5q51 0 96.5 -20.5t79.5 -55t53.5 -79.5
t19.5 -94v-248h-50z" />
    <glyph glyph-name="b" unicode="b" horiz-adv-x="575" 
d="M503 253q0 -50 -18 -95t-51 -80t-79.5 -55.5t-102.5 -20.5t-102.5 20.5t-79.5 55.5t-51 80t-18 95v495h51v-495q0 -42 16 -78.5t43.5 -63.5t64 -42.5t76.5 -15.5q45 0 82 16t63 43.5t40.5 64t14.5 76.5q0 38 -13.5 74t-39.5 64t-63 45t-84 17v51q54 0 100 -22t79.5 -57
t52.5 -80.5t19 -91.5z" />
    <glyph glyph-name="c" unicode="c" horiz-adv-x="507" 
d="M3 251q0 57 20.5 103t54.5 79t78.5 51t91.5 18q21 0 44 -3t46.5 -11t47 -22.5t44.5 -38.5l-38 -38q-12 17 -32 31q-17 12 -44.5 22t-67.5 10q-38 0 -74 -15.5t-64.5 -42.5t-45.5 -64t-17 -79q0 -38 15.5 -74t42.5 -64t64 -45.5t79 -17.5v-50q-50 0 -94 19t-78 52.5
t-53.5 79.5t-19.5 100z" />
    <glyph glyph-name="d" unicode="d" horiz-adv-x="575" 
d="M-1 249q0 46 18.5 91t52 80t79 56.5t99.5 21.5v-50q-47 0 -83.5 -17t-62.5 -45t-39.5 -64t-13.5 -73q0 -40 14.5 -76.5t41 -64.5t63 -44.5t80.5 -16.5q40 0 76.5 16t64.5 43.5t44.5 64.5t16.5 78v501h50v-501q0 -50 -18.5 -95.5t-51.5 -80t-79.5 -55.5t-102.5 -21
q-57 0 -103 21t-78.5 56t-50 80.5t-17.5 94.5z" />
    <glyph glyph-name="e" unicode="e" horiz-adv-x="575" 
d="M251 506q54 0 100 -20.5t79 -55t52 -80t19 -94.5v-24h-250v49h200q0 23 -13.5 53.5t-39.5 57.5t-63 45.5t-84 18.5q-40 0 -76 -15.5t-63.5 -42.5t-44 -63.5t-16.5 -78.5q0 -51 20 -89t50 -62.5t65 -36.5t65 -12v-50q-59 0 -105 21.5t-78.5 56.5t-49.5 80t-17 92
q0 49 19 94.5t52.5 80t79 55t99.5 20.5z" />
    <glyph glyph-name="f" unicode="f" horiz-adv-x="325" 
d="M-1 248v92v177q0 44 13 86.5t42.5 75.5t76 53t112.5 20v-50q-63 0 -101.5 -20.5t-59 -50t-27 -61t-6.5 -53.5v-218h194v-51h-244z" />
    <glyph glyph-name="g" unicode="g" horiz-adv-x="570" 
d="M493 -4q0 -13 -2 -36.5t-10.5 -50.5t-24.5 -55t-43.5 -51t-68.5 -37.5t-99 -14.5q-62 0 -105.5 11t-72 30.5t-44.5 46t-23 58.5h51q10 -20 22 -37.5t32.5 -31t53.5 -21.5t86 -8t90.5 17.5t61 45t34.5 63t11 71.5v248q0 40 -16 76t-43 63t-63 42.5t-75 15.5q-43 0 -79 -16
t-62.5 -43t-41 -63t-14.5 -75q0 -37 13.5 -72.5t39 -63t62 -44.5t82.5 -17v-51q-53 0 -98 21.5t-77.5 56t-51 79t-18.5 91.5q0 48 17.5 92t49.5 77.5t77 54t101 20.5t101.5 -20.5t78 -54t50.5 -77.5t18 -92v-248z" />
    <glyph glyph-name="h" unicode="h" horiz-adv-x="525" 
d="M-1 759h51v-251h150q57 0 104 -21.5t80.5 -57t51.5 -81t18 -93.5v-254h-51v254q0 41 -17.5 77.5t-46 64t-65 43.5t-74.5 16h-150h-51v303z" />
    <glyph glyph-name="i" unicode="i" horiz-adv-x="125" 
d="M50 499v-499h-49v499h49v0z" />
    <glyph glyph-name="j" unicode="j" horiz-adv-x="326" 
d="M255 -1q0 -47 -14 -91t-44 -78.5t-78.5 -55.5t-117.5 -21v53q66 0 105.5 21.5t61 52t28.5 63.5t7 56v500h52v-500z" />
    <glyph glyph-name="k" unicode="k" horiz-adv-x="575" 
d="M400 0l-400 233v1v516h50l1 -457l349 207h100l-425 -250l425 -250h-100v0z" />
    <glyph glyph-name="l" unicode="l" horiz-adv-x="124" 
d="M50 748v-749h-49v749h49v0z" />
    <glyph glyph-name="m" unicode="m" horiz-adv-x="874" 
d="M0 253q0 51 16 96t44.5 78.5t66.5 53t82 19.5q51 0 87.5 -20.5t59.5 -44.5q27 -29 45 -65q16 36 42 65q23 24 59 44.5t90 20.5q42 0 80 -18t67 -50t46 -78t17 -101v-253h-49v253q0 51 -18 88.5t-43.5 61.5t-53 36t-46.5 12q-37 0 -68 -17t-53 -45t-34 -63.5t-12 -72.5
v-253h-49v253q0 39 -12 75t-34 63.5t-53 43.5t-68 16q-32 0 -61 -15.5t-51 -42t-35 -62.5t-13 -78h-49v0z" />
    <glyph glyph-name="n" unicode="n" horiz-adv-x="573" 
d="M0 253q0 46 17.5 90.5t50.5 79t80 55.5t106 21q56 0 101.5 -21t77.5 -55.5t49.5 -79t17.5 -90.5v-253h-54v253q0 40 -15 75t-41 61t-61 41.5t-75 15.5q-46 0 -83 -15.5t-63.5 -41.5t-40.5 -61t-14 -75h-53z" />
    <glyph glyph-name="o" unicode="o" horiz-adv-x="572" 
d="M500 253q0 -44 -16 -88.5t-47.5 -80t-78 -58t-107.5 -22.5v50q39 0 75 14t63.5 40t44 62.5t16.5 82.5q0 36 -14 72t-40 64t-62.5 45.5t-82.5 17.5q-38 0 -73.5 -14t-63.5 -40t-45 -62.5t-17 -82.5h-50q0 50 19.5 95.5t53 79.5t79 54t97.5 20q53 0 98.5 -20t79 -54
t52.5 -79.5t19 -95.5z" />
    <glyph glyph-name="p" unicode="p" horiz-adv-x="575" 
d="M499 256q0 -50 -18.5 -96t-51.5 -81t-78 -56.5t-98 -21.5v53q46 0 82 17t60.5 45t37.5 64.5t13 75.5t-14 74.5t-39.5 61.5t-61 41.5t-78.5 15.5q-40 0 -76.5 -15.5t-64.5 -41.5t-44.5 -61.5t-16.5 -74.5v-501h-53v501q0 46 18.5 90.5t52.5 79t81 55.5t103 21t101.5 -21
t77.5 -55.5t49.5 -79t17.5 -90.5z" />
    <glyph glyph-name="q" unicode="q" horiz-adv-x="595" 
d="M0 254q0 46 17.5 90.5t49.5 79t77 55.5t101 21t103 -21t80.5 -55.5t52.5 -79t19 -90.5v-501h-53v501q0 40 -16.5 75t-44.5 61.5t-64.5 42t-76.5 15.5q-42 0 -77.5 -15.5t-61 -42t-40 -61.5t-14.5 -75q0 -39 13 -75.5t37.5 -64.5t60.5 -44.5t82 -16.5v-54q-53 0 -97.5 21
t-77.5 56.5t-51.5 81.5t-18.5 96z" />
    <glyph glyph-name="r" unicode="r" horiz-adv-x="347" 
d="M0 1v249q0 47 13 91.5t42.5 79.5t77 56.5t116.5 21.5v-50q-65 0 -104 -21.5t-60 -52.5t-28 -65.5t-7 -59.5v-249h-50z" />
    <glyph glyph-name="s" unicode="s" horiz-adv-x="595" 
d="M55 364q0 -34 23 -52.5t55 -27t65.5 -10t53.5 -1.5q27 0 69 -4t82 -18t68.5 -41t28.5 -74q0 -48 -28.5 -75.5t-68.5 -41.5t-82 -18t-69 -4v50q10 0 29 0.5t41 3t44.5 8t41 15.5t30.5 25.5t12 38.5q0 32 -24 49t-56.5 25t-65.5 9.5t-52 1.5q-29 0 -72 4t-83 18t-68.5 41.5
t-28.5 74.5q0 46 28.5 73.5t68.5 41t83.5 17.5t73.5 4h246v-50h-252q-21 0 -54 -1.5t-64 -9.5t-53 -25t-22 -47z" />
    <glyph glyph-name="t" unicode="t" horiz-adv-x="325" 
d="M2 754h53h195v-53h-195v-452q0 -27 7 -60.5t27.5 -63.5t59 -50.5t101.5 -20.5v-53q-70 0 -117.5 21.5t-76.5 56t-41.5 79t-12.5 91.5v505z" />
    <glyph glyph-name="u" unicode="u" horiz-adv-x="575" 
d="M2 500h52v-251q0 -40 14.5 -75.5t40.5 -62t63.5 -42t83.5 -15.5q39 0 74.5 15.5t61.5 42t41.5 62t15.5 75.5h52q0 -49 -18.5 -93.5t-51.5 -78.5t-78 -54t-97 -20q-59 0 -106 21t-80 55.5t-50.5 79t-17.5 90.5v251z" />
    <glyph glyph-name="v" unicode="v" horiz-adv-x="449" 
d="M1 499h62l185 -379l70 124h53l-123 -247z" />
    <glyph glyph-name="w" unicode="w" horiz-adv-x="750" 
d="M431 377l-185 -376l-243 498l62 1l181 -377l185 376l243 -498h-61z" />
    <glyph glyph-name="x" unicode="x" horiz-adv-x="575" 
d="M498 1h-67l-181 211l-184 -211h-65l216 249l-216 251h62l435 -500v0z" />
    <glyph glyph-name="y" unicode="y" horiz-adv-x="315" 
d="M-2 -253l183 382l-183 371h52l191 -371l-191 -382h-52v0z" />
    <glyph glyph-name="z" unicode="z" horiz-adv-x="575" 
d="M500 3h-499l432 499h67l-387 -447h387v-52v0z" />
    <glyph glyph-name="Euro" unicode="&#x20ac;" 
d="M26 310h-26v51h126v24v26h-126v51h137q10 48 35 101.5t69.5 98t109.5 74t155 29.5q40 0 82.5 -9.5t82.5 -28.5t76 -47.5t64 -66.5h-79q-45 46 -103 73.5t-123 27.5q-66 0 -120.5 -21.5t-95 -56.5t-67.5 -80.5t-38 -93.5h547v-51h-554v-50h554v-51h-547h-52h-107z" />
    <glyph glyph-name="_0129" 
 />
    <glyph glyph-name="_0014" 
 />
    <glyph glyph-name="_0015" 
 />
    <glyph glyph-name="_0016" 
 />
    <glyph glyph-name="_0017" 
 />
    <glyph glyph-name="_0018" 
 />
    <glyph glyph-name="_0019" 
 />
    <glyph glyph-name="_0020" 
 />
    <glyph glyph-name="_0021" 
 />
    <glyph glyph-name="_0022" 
 />
    <glyph glyph-name="_0023" 
 />
    <glyph glyph-name="_0000" horiz-adv-x="694" 
 />
    <glyph glyph-name="_0001" 
 />
    <glyph glyph-name="_0002" 
 />
    <glyph glyph-name="_0003" 
 />
    <glyph glyph-name="_0004" 
 />
  </font>
</defs>
</svg>
