<svg xmlns="http://www.w3.org/2000/svg" width="64" height="64"><g data-name="Group 34"><g data-name="Ellipse 73" fill="none" stroke="#fff" stroke-width="3"><circle cx="32" cy="32" r="32" stroke="none"/><circle cx="32" cy="32" r="30.5"/></g><path d="M30.852 24.206l.915-.915a.985.985 0 011.4 0L41.18 31.3a.985.985 0 010 1.4l-8.013 8.013a.985.985 0 01-1.4 0l-.915-.915a.99.99 0 01.016-1.414l4.967-4.734H23.989a.987.987 0 01-.989-.991v-1.318a.987.987 0 01.989-.991h11.846l-4.966-4.731a.983.983 0 01-.017-1.413z" fill="#fff"/></g></svg>