<svg xmlns="http://www.w3.org/2000/svg" width="22.5" height="20"><path d="M11.25 0a4.922 4.922 0 00-4.922 4.922c0 2.2 3.217 6.2 4.449 7.657a.616.616 0 00.945 0c1.232-1.454 4.449-5.459 4.449-7.657A4.922 4.922 0 0011.25 0zm0 6.563a1.641 1.641 0 111.641-1.641 1.64 1.64 0 01-1.641 1.641zM.786 8.436A1.25 1.25 0 000 9.6v9.778a.625.625 0 00.857.58L6.25 17.5V8.4a11.83 11.83 0 01-.83-1.813zM11.25 14.05a1.866 1.866 0 01-1.426-.662 40.527 40.527 0 01-2.324-3V17.5L15 20v-9.609a41.76 41.76 0 01-2.324 3 1.867 1.867 0 01-1.426.659zM21.643 6.3L16.25 8.75V20l5.464-2.186a1.25 1.25 0 00.786-1.161V6.876a.625.625 0 00-.857-.58z" fill="#e2e2e2"/></svg>