<svg xmlns="http://www.w3.org/2000/svg" width="27.014" height="23.376"><path d="M20.5.499L1.872 5.493A1.93 1.93 0 00.508 7.856L4.17 21.518a1.93 1.93 0 002.363 1.363l18.63-4.994a1.93 1.93 0 001.364-2.363L22.864 1.862A1.93 1.93 0 0020.5.5zM10.007 18.456a.484.484 0 01-.34.59l-2.795.75a.484.484 0 01-.59-.341l-.417-1.553a.484.484 0 01.341-.59L9 16.562a.484.484 0 01.59.342zm7.452-1.998a.484.484 0 01-.34.59l-5.276 1.415a.484.484 0 01-.59-.341l-.417-1.553a.484.484 0 01.341-.59l5.278-1.415a.484.484 0 01.59.34z" fill="#707070"/></svg>