<svg xmlns="http://www.w3.org/2000/svg" width="27.003" height="24"><path d="M13.791 13.018a6.83 6.83 0 012.32 1.158l7.571-2.522a.748.748 0 00.473-.947l-2.83-8.494a.748.748 0 00-.947-.473l-2.864.96 1.552 4.66-2.846.94-1.552-4.66-2.888.96a.748.748 0 00-.473.947l2.485 7.472zM26.964 15.3l-.478-1.425a.748.748 0 00-.947-.473L15.531 16.74a4.479 4.479 0 00-3.446-1.734L7.425 1.027A1.5 1.5 0 006 0H.75A.752.752 0 000 .75v1.5A.752.752 0 00.75 3h4.167L9.24 15.971a4.469 4.469 0 00-1.688 4.242 4.5 4.5 0 008.94-.628l10-3.338a.75.75 0 00.472-.947zM12 21.751a2.25 2.25 0 112.25-2.25 2.251 2.251 0 01-2.25 2.25z" fill="#707070"/></svg>