<svg xmlns="http://www.w3.org/2000/svg" width="18" height="18"><path d="M6.187 7.594h5.625a.562.562 0 00.562-.562v-.563a.562.562 0 00-.562-.562H6.187a.562.562 0 00-.562.562v.562a.562.562 0 00.562.563zm-.562 2.809a.562.562 0 00.562.562h5.625a.562.562 0 00.562-.562v-.559a.562.562 0 00-.562-.562H6.187a.562.562 0 00-.562.562zM9 14.665a2.808 2.808 0 01-1.647-.534L0 8.819v7.493a1.687 1.687 0 001.687 1.691h14.625A1.687 1.687 0 0018 16.312V8.819l-7.353 5.311A2.811 2.811 0 019 14.665zm8.353-8.936a54.123 54.123 0 00-1.041-.8V3.375a1.687 1.687 0 00-1.687-1.687H11.9l-.318-.231C10.99 1.026 9.816-.012 9 .003c-.816-.015-1.99 1.023-2.581 1.454l-.319.231H3.375a1.687 1.687 0 00-1.688 1.687v1.552c-.435.328-.73.558-1.041.8A1.687 1.687 0 000 7.057v.374l3.375 2.438V3.375h11.25v6.494L18 7.431v-.374a1.687 1.687 0 00-.647-1.328z" fill="#707070"/></svg>