<svg data-name="Group 5" xmlns="http://www.w3.org/2000/svg" width="19" height="18.284"><path data-name="Path 16" d="M18.386 0H.614A.615.615 0 000 .614v2.729a.615.615 0 00.614.614h17.772A.615.615 0 0019 3.343V.614A.614.614 0 0018.386 0z" fill="#FA9313"/><path data-name="Path 17" d="M18.386 7.163H.614A.615.615 0 000 7.777v2.729a.615.615 0 00.614.614h17.772a.615.615 0 00.614-.614V7.777a.614.614 0 00-.614-.614z" fill="#FA9313"/><path data-name="Path 18" d="M18.386 14.327H.614a.615.615 0 00-.614.614v2.729a.615.615 0 00.614.614h17.772A.615.615 0 0019 17.67v-2.729a.614.614 0 00-.614-.614z" fill="#FA9313"/></svg>