<svg xmlns="http://www.w3.org/2000/svg" width="18.004" height="18"><path fill="#fff" d="M9.004 4.385A4.615 4.615 0 1013.619 9a4.608 4.608 0 00-4.615-4.615zm0 7.615a3 3 0 113-3 3.006 3.006 0 01-3 3zm5.88-7.8a1.076 1.076 0 11-1.076-1.076 1.074 1.074 0 011.076 1.072zm3.057 1.092a5.327 5.327 0 00-1.454-3.772A5.362 5.362 0 0012.715.066c-1.486-.084-5.94-.084-7.427 0a5.354 5.354 0 00-3.772 1.45A5.344 5.344 0 00.063 5.285c-.088 1.49-.088 5.94 0 7.426a5.327 5.327 0 001.454 3.772 5.369 5.369 0 003.772 1.454c1.486.084 5.94.084 7.427 0a5.327 5.327 0 003.772-1.454 5.362 5.362 0 001.454-3.772c.083-1.486.083-5.936-.001-7.422zm-1.92 9.017a3.038 3.038 0 01-1.711 1.711c-1.185.47-4 .361-5.306.361s-4.125.1-5.306-.361a3.038 3.038 0 01-1.711-1.711c-.47-1.185-.361-4-.361-5.306s-.1-4.125.361-5.306a3.038 3.038 0 011.711-1.711c1.185-.47 4-.361 5.306-.361s4.125-.1 5.306.361a3.038 3.038 0 011.711 1.711c.47 1.185.361 4 .361 5.306s.109 4.122-.361 5.303z"/></svg>