<svg xmlns="http://www.w3.org/2000/svg" width="19.692" height="16"><path fill="#FA9313" d="M4.923 2.615V1.077a.615.615 0 01.615-.615h13.539a.615.615 0 01.615.615v1.538a.615.615 0 01-.615.615H5.538a.615.615 0 01-.615-.615zm.615 6.769h13.539a.615.615 0 00.615-.615V7.231a.615.615 0 00-.615-.615H5.538a.615.615 0 00-.615.615v1.538a.615.615 0 00.615.616zm0 6.154h13.539a.615.615 0 00.615-.615v-1.538a.615.615 0 00-.615-.615H5.538a.615.615 0 00-.615.615v1.538a.615.615 0 00.615.615zM.615 3.692h2.462a.615.615 0 00.615-.615V.615A.615.615 0 003.077 0H.615A.615.615 0 000 .615v2.462a.615.615 0 00.615.615zm0 6.154h2.462a.615.615 0 00.615-.615V6.769a.615.615 0 00-.615-.615H.615A.615.615 0 000 6.769v2.462a.615.615 0 00.615.615zm0 6.154h2.462a.615.615 0 00.615-.615v-2.462a.615.615 0 00-.615-.615H.615a.615.615 0 00-.615.615v2.462A.615.615 0 00.615 16z"/></svg>