<svg xmlns="http://www.w3.org/2000/svg" width="30.195" height="27.405"><g data-name="Group 2"><path data-name="Path 3" d="M1.117 2.234h3.2L8.88 18.729a1.117 1.117 0 001.08.819h14.019a1.119 1.119 0 001.021-.67l5.1-11.729a1.13 1.13 0 00-.093-1.061 1.109 1.109 0 00-.931-.5H13.591a1.117 1.117 0 000 2.234h13.776l-4.133 9.495H10.8L6.237.819A1.117 1.117 0 005.157 0h-4.04a1.117 1.117 0 000 2.234z"/><path data-name="Path 4" d="M8.899 27.409a2.532 2.532 0 10-2.532-2.532 2.535 2.535 0 002.532 2.532z"/><path data-name="Path 5" d="M24.723 27.405h.186a2.619 2.619 0 10-.186 0z"/></g></svg>