<svg xmlns="http://www.w3.org/2000/svg" width="16" height="14"><path d="M5.853 11.354l-2.5 2.5a.5.5 0 01-.707 0l-2.5-2.5A.5.5 0 01.5 10.5H2V.5a.5.5 0 01.5-.5h1a.5.5 0 01.5.5v10h1.5a.5.5 0 01.353.854zM7.5 2h8a.5.5 0 00.5-.5v-1a.5.5 0 00-.5-.5h-8a.5.5 0 00-.5.5v1a.5.5 0 00.5.5zM7 5.5v-1a.5.5 0 01.5-.5h6a.5.5 0 01.5.5v1a.5.5 0 01-.5.5h-6a.5.5 0 01-.5-.5zm0 8v-1a.5.5 0 01.5-.5h2a.5.5 0 01.5.5v1a.5.5 0 01-.5.5h-2a.5.5 0 01-.5-.5zm0-4v-1a.5.5 0 01.5-.5h4a.5.5 0 01.5.5v1a.5.5 0 01-.5.5h-4a.5.5 0 01-.5-.5z" fill="#4a4a4a"/></svg>