<svg xmlns="http://www.w3.org/2000/svg" width="30.301" height="18"><path fill="#FA9313" d="M29.61 1.221c.208-.7 0-1.221-1-1.221H25.3a1.423 1.423 0 00-1.44.939 27.761 27.761 0 01-4.072 6.778c-.771.771-1.125 1.018-1.547 1.018-.208 0-.529-.248-.529-.951V1.221c0-.844-.236-1.221-.934-1.221h-5.213a.8.8 0 00-.844.759c0 .8 1.192.984 1.316 3.234v4.882c0 1.069-.191 1.266-.613 1.266-1.125 0-3.859-4.129-5.479-8.854C5.619.371 5.3 0 4.449 0H1.136C.191 0 0 .444 0 .939c0 .878 1.125 5.237 5.237 11 2.739 3.932 6.6 6.064 10.108 6.064 2.109 0 2.368-.472 2.368-1.288 0-3.757-.191-4.112.866-4.112.489 0 1.333.247 3.3 2.143 2.25 2.25 2.621 3.257 3.881 3.257h3.313c.945 0 1.423-.472 1.148-1.406-.63-1.963-4.888-6-5.079-6.272-.489-.63-.349-.911 0-1.474.007-.009 4.052-5.701 4.468-7.63z"/></svg>