<svg xmlns="http://www.w3.org/2000/svg" width="33.35" height="64.144"><g data-name="Group 56" fill="#ffce52"><path d="M1.337 61.426c6.709-8.184 18.125-10.585 28.2-9.006l2.106.33-1.286 1.7C23.938 62.913 12.1 65.539 2.065 63.483l-2.067-.423z"/><path data-name="Shape" d="M3.951 1.199c7.065 5.67 11.287 15.07 9.534 24.111l-.384 1.983-1.625-1.2C4.231 20.744-.663 10.816 1.926 1.839L2.457 0zm29.118 29.1c-1.387 9.837-8.466 19.818-18.562 22.041l-1.871.413.342-1.883c1.8-9.868 8.689-18.886 18.444-21.961l1.928-.609z"/><path data-name="Shape" d="M22.548 8.687a26.569 26.569 0 01-3.165 26.491l-1.356 1.75-.837-2.048c-3.525-8.644-2.646-19.02 3.18-26.47l1.323-1.69z"/></g></svg>