<svg xmlns="http://www.w3.org/2000/svg" width="33.352" height="64.144"><g data-name="Group 55" fill="#ffce52"><path d="M32.017 61.426c-6.709-8.184-18.125-10.585-28.2-9.006l-2.106.33 1.286 1.7c6.419 8.463 18.257 11.089 28.292 9.033l2.067-.423z"/><path data-name="Shape" d="M29.403 1.199c-7.065 5.67-11.287 15.07-9.534 24.111l.384 1.983 1.625-1.2c7.245-5.349 12.139-15.276 9.551-24.254L30.898 0zM.288 30.299c1.384 9.836 8.463 19.818 18.559 22.041l1.871.413-.342-1.883c-1.8-9.868-8.689-18.886-18.444-21.961L.004 28.3z"/><path data-name="Shape" d="M10.805 8.687a26.569 26.569 0 003.165 26.491l1.356 1.75.837-2.048c3.525-8.644 2.646-19.02-3.18-26.47L11.66 6.717z"/></g></svg>