<svg xmlns="http://www.w3.org/2000/svg" width="27.014" height="23.376" viewBox="0 0 27.014 23.376">
  <path id="credit-card-blank" d="M21.214,40H1.929A1.929,1.929,0,0,0,0,41.929V56.071A1.929,1.929,0,0,0,1.929,58H21.214a1.929,1.929,0,0,0,1.929-1.929V41.929A1.929,1.929,0,0,0,21.214,40ZM6.429,54.625a.484.484,0,0,1-.482.482H3.054a.484.484,0,0,1-.482-.482V53.018a.484.484,0,0,1,.482-.482H5.946a.484.484,0,0,1,.482.482Zm7.714,0a.484.484,0,0,1-.482.482H8.2a.484.484,0,0,1-.482-.482V53.018a.484.484,0,0,1,.482-.482h5.464a.484.484,0,0,1,.482.482Z" transform="matrix(0.966, -0.259, 0.259, 0.966, -10.352, -32.647)" fill="#707070"/>
</svg>
