<svg xmlns="http://www.w3.org/2000/svg" width="27.003" height="24" viewBox="0 0 27.003 24">
  <path id="dolly" d="M13.791,13.018a6.83,6.83,0,0,1,2.32,1.158l7.571-2.522a.748.748,0,0,0,.473-.947L21.325,2.213a.748.748,0,0,0-.947-.473L17.514,2.7l1.552,4.66L16.22,8.3l-1.552-4.66L11.78,4.6a.748.748,0,0,0-.473.947l2.485,7.472ZM26.964,15.3l-.478-1.425a.748.748,0,0,0-.947-.473L15.531,16.74a4.479,4.479,0,0,0-3.446-1.734L7.425,1.027A1.5,1.5,0,0,0,6,0H.75A.752.752,0,0,0,0,.75v1.5A.752.752,0,0,0,.75,3H4.917L9.24,15.971a4.469,4.469,0,0,0-1.688,4.242,4.5,4.5,0,0,0,8.94-.628l10-3.338A.75.75,0,0,0,26.964,15.3ZM12,21.751a2.25,2.25,0,1,1,2.25-2.25A2.251,2.251,0,0,1,12,21.751Z" fill="#707070"/>
</svg>
