<svg xmlns="http://www.w3.org/2000/svg" width="18" height="18" viewBox="0 0 18 18">
  <path id="envelope-open-text" d="M6.187,7.591h5.625a.562.562,0,0,0,.562-.562V6.466a.562.562,0,0,0-.562-.562H6.187a.562.562,0,0,0-.562.562v.562A.562.562,0,0,0,6.187,7.591ZM5.625,10.4a.562.562,0,0,0,.562.562h5.625a.562.562,0,0,0,.562-.562V9.841a.562.562,0,0,0-.562-.562H6.187a.562.562,0,0,0-.562.562ZM9,14.662a2.808,2.808,0,0,1-1.647-.534L0,8.816v7.493A1.687,1.687,0,0,0,1.687,18H16.312A1.687,1.687,0,0,0,18,16.309V8.816l-7.353,5.311A2.811,2.811,0,0,1,9,14.662Zm8.353-8.936c-.311-.244-.606-.474-1.041-.8V3.372a1.687,1.687,0,0,0-1.687-1.687H11.9l-.318-.231C10.99,1.023,9.816-.015,9,0,8.184-.015,7.01,1.023,6.419,1.454L6.1,1.685H3.375A1.687,1.687,0,0,0,1.687,3.372V4.924c-.435.328-.73.558-1.041.8A1.687,1.687,0,0,0,0,7.054v.374L3.375,9.866V3.372h11.25V9.866L18,7.428V7.054a1.687,1.687,0,0,0-.647-1.328Z" transform="translate(0 0.003)" fill="#707070"/>
</svg>
