<svg xmlns="http://www.w3.org/2000/svg" width="12.857" height="15" viewBox="0 0 12.857 15">
  <path id="fire" d="M9.285,33.5a17.433,17.433,0,0,0-1.614,1.758A22.406,22.406,0,0,0,4.821,32C2,34.672,0,38.151,0,40.25A6.6,6.6,0,0,0,6.429,47a6.6,6.6,0,0,0,6.429-6.75C12.857,38.69,11.364,35.472,9.285,33.5ZM8.776,43.615a3.93,3.93,0,0,1-2.263.706,3.609,3.609,0,0,1-3.834-3.67c0-1.132.713-2.129,2.133-3.83.2.234,2.9,3.673,2.9,3.673l1.718-1.959c.121.2.231.4.331.586a3.5,3.5,0,0,1-.981,4.493Z" transform="translate(0 -32)" fill="#fff"/>
</svg>
