<svg id="Group_5" data-name="Group 5" xmlns="http://www.w3.org/2000/svg" width="19" height="18.284" viewBox="0 0 19 18.284">
  <path id="Path_16" data-name="Path 16" d="M18.386,1.75H.614A.615.615,0,0,0,0,2.364V5.093a.615.615,0,0,0,.614.614H18.386A.615.615,0,0,0,19,5.093V2.364A.614.614,0,0,0,18.386,1.75Z" transform="translate(0 -1.75)" fill="#FA9313"/>
  <path id="Path_17" data-name="Path 17" d="M18.386,36.75H.614A.615.615,0,0,0,0,37.364v2.729a.615.615,0,0,0,.614.614H18.386A.615.615,0,0,0,19,40.093V37.364A.614.614,0,0,0,18.386,36.75Z" transform="translate(0 -29.587)" fill="#FA9313"/>
  <path id="Path_18" data-name="Path 18" d="M18.386,71.75H.614A.615.615,0,0,0,0,72.364v2.729a.615.615,0,0,0,.614.614H18.386A.615.615,0,0,0,19,75.093V72.364A.614.614,0,0,0,18.386,71.75Z" transform="translate(0 -57.423)" fill="#FA9313"/>
</svg>
