<svg xmlns="http://www.w3.org/2000/svg" width="30.195" height="27.405" viewBox="0 0 30.195 27.405">
  <g id="online-shopping-cart" transform="translate(0 -21.231)">
    <g id="Group_2" data-name="Group 2" transform="translate(0 21.231)">
      <path id="Path_3" fill="#fff" data-name="Path 3" d="M1.117,23.465h3.2L8.88,39.96a1.117,1.117,0,0,0,1.08.819H23.979A1.119,1.119,0,0,0,25,40.109L30.1,28.38a1.13,1.13,0,0,0-.093-1.061,1.109,1.109,0,0,0-.931-.5H13.591a1.117,1.117,0,0,0,0,2.234H27.367l-4.133,9.495H10.8L6.237,22.05a1.117,1.117,0,0,0-1.08-.819H1.117a1.117,1.117,0,0,0,0,2.234Z" transform="translate(0 -21.231)"/>
      <path id="Path_4" fill="#fff" data-name="Path 4" d="M99.432,366.3a2.532,2.532,0,1,0-2.532-2.532A2.535,2.535,0,0,0,99.432,366.3Z" transform="translate(-90.533 -338.891)"/>
      <path id="Path_5" fill="#fff" data-name="Path 5" d="M340.448,366.214h.186a2.619,2.619,0,1,0-.186,0Z" transform="translate(-315.725 -338.809)"/>
    </g>
  </g>
</svg>
