<svg xmlns="http://www.w3.org/2000/svg" width="19.25" height="22" viewBox="0 0 19.25 22">
  <path fill="#FA9313" id="share-alt" d="M19.25,17.875A4.125,4.125,0,1,1,11.311,16.3l-4.1-2.563a4.125,4.125,0,1,1,0-5.477l4.1-2.563a4.131,4.131,0,1,1,.73,1.165l-4.1,2.563a4.134,4.134,0,0,1,0,3.146l4.1,2.563a4.125,4.125,0,0,1,7.209,2.739Zm-4.125-16.5a2.75,2.75,0,1,0,2.75,2.75,2.753,2.753,0,0,0-2.75-2.75m-11,6.875A2.75,2.75,0,1,0,6.875,11a2.753,2.753,0,0,0-2.75-2.75m11,6.875a2.75,2.75,0,1,0,2.75,2.75,2.753,2.753,0,0,0-2.75-2.75"/>
</svg>
