<svg xmlns="http://www.w3.org/2000/svg" width="16" height="14" viewBox="0 0 16 14">
  <path id="sort-amount-down" d="M5.853,43.354l-2.5,2.5a.5.5,0,0,1-.707,0l-2.5-2.5A.5.5,0,0,1,.5,42.5H2v-10a.5.5,0,0,1,.5-.5h1a.5.5,0,0,1,.5.5v10H5.5A.5.5,0,0,1,5.853,43.354ZM7.5,34h8a.5.5,0,0,0,.5-.5v-1a.5.5,0,0,0-.5-.5h-8a.5.5,0,0,0-.5.5v1A.5.5,0,0,0,7.5,34ZM7,37.5v-1a.5.5,0,0,1,.5-.5h6a.5.5,0,0,1,.5.5v1a.5.5,0,0,1-.5.5h-6A.5.5,0,0,1,7,37.5Zm0,8v-1a.5.5,0,0,1,.5-.5h2a.5.5,0,0,1,.5.5v1a.5.5,0,0,1-.5.5h-2A.5.5,0,0,1,7,45.5Zm0-4v-1a.5.5,0,0,1,.5-.5h4a.5.5,0,0,1,.5.5v1a.5.5,0,0,1-.5.5h-4A.5.5,0,0,1,7,41.5Z" transform="translate(0 -32)" fill="#4a4a4a"/>
</svg>
