<svg xmlns="http://www.w3.org/2000/svg" width="17.143" height="15" viewBox="0 0 17.143 15">
  <path id="th-large" d="M9.911,32h6.429a.8.8,0,0,1,.8.8v5.357a.8.8,0,0,1-.8.8H9.911a.8.8,0,0,1-.8-.8V32.8A.8.8,0,0,1,9.911,32ZM7.232,32H.8a.8.8,0,0,0-.8.8v5.357a.8.8,0,0,0,.8.8H7.232a.8.8,0,0,0,.8-.8V32.8A.8.8,0,0,0,7.232,32ZM0,40.839V46.2a.8.8,0,0,0,.8.8H7.232a.8.8,0,0,0,.8-.8V40.839a.8.8,0,0,0-.8-.8H.8A.8.8,0,0,0,0,40.839ZM9.911,47h6.429a.8.8,0,0,0,.8-.8V40.839a.8.8,0,0,0-.8-.8H9.911a.8.8,0,0,0-.8.8V46.2A.8.8,0,0,0,9.911,47Z" transform="translate(0 -32)" fill="#1e1e1e"/>
</svg>
