<svg xmlns="http://www.w3.org/2000/svg" width="30.301" height="18" viewBox="0 0 30.301 18">
  <path fill="#707070" id="vk" d="M48.21,97.221c.208-.7,0-1.221-1-1.221H43.9a1.423,1.423,0,0,0-1.44.939,27.761,27.761,0,0,1-4.072,6.778c-.771.771-1.125,1.018-1.547,1.018-.208,0-.529-.248-.529-.951V97.221c0-.844-.236-1.221-.934-1.221H30.165a.8.8,0,0,0-.844.759c0,.8,1.192.984,1.316,3.234v4.882c0,1.069-.191,1.266-.613,1.266-1.125,0-3.859-4.129-5.479-8.854C24.219,96.371,23.9,96,23.049,96H19.736c-.945,0-1.136.444-1.136.939,0,.878,1.125,5.237,5.237,11,2.739,3.932,6.6,6.064,10.108,6.064,2.109,0,2.368-.472,2.368-1.288,0-3.757-.191-4.112.866-4.112.489,0,1.333.247,3.3,2.143,2.25,2.25,2.621,3.257,3.881,3.257h3.313c.945,0,1.423-.472,1.148-1.406-.63-1.963-4.888-6-5.079-6.272-.489-.63-.349-.911,0-1.474C43.749,104.842,47.794,99.15,48.21,97.221Z" transform="translate(-18.6 -96)"/>
</svg>
