<svg xmlns="http://www.w3.org/2000/svg" width="33.352" height="64.144" viewBox="0 0 33.352 64.144">
  <g id="Group_55" data-name="Group 55" transform="translate(-0.868 -0.383)">
    <path id="Shape" d="M3.914-61.809c6.709,8.184,18.125,10.585,28.2,9.006l2.106-.33-1.286-1.7c-6.419-8.463-18.257-11.089-28.292-9.033l-2.067.423Z" transform="translate(36.799) rotate(180)" fill="#ffce52"/>
    <path id="Shape-2" data-name="Shape" d="M23.068-1.582c7.065-5.67,11.287-15.07,9.534-24.111l-.384-1.983-1.625,1.2C23.348-21.127,18.454-11.2,21.042-2.222l.531,1.839Z" transform="translate(53.339) rotate(180)" fill="#ffce52"/>
    <path id="Shape-3" data-name="Shape" d="M21.3-30.682C19.916-40.518,12.837-50.5,2.741-52.723L.87-53.136l.342,1.883c1.8,9.868,8.689,18.886,18.444,21.961l1.928.609Z" transform="translate(22.456) rotate(180)" fill="#ffce52"/>
    <path id="Shape-4" data-name="Shape" d="M16.949-9.07a26.569,26.569,0,0,0-3.165-26.491l-1.356-1.75-.837,2.048c-3.525,8.644-2.646,19.02,3.18,26.47L16.094-7.1Z" transform="translate(28.622) rotate(180)" fill="#ffce52"/>
  </g>
</svg>
