<svg xmlns="http://www.w3.org/2000/svg" width="33.35" height="64.144" viewBox="0 0 33.35 64.144">
  <g id="Group_56" data-name="Group 56" transform="translate(-234.778 -1.383)">
    <path id="Shape" d="M196.115,62.809c6.709-8.184,18.125-10.585,28.2-9.006l2.106.33-1.286,1.7c-6.419,8.463-18.257,11.089-28.292,9.033l-2.067-.423Z" transform="translate(40)" fill="#ffce52"/>
    <path id="Shape-2" data-name="Shape" d="M198.729,2.582c7.065,5.67,11.287,15.07,9.534,24.111l-.384,1.983-1.625-1.2c-7.245-5.349-12.139-15.277-9.55-24.254l.531-1.839Z" transform="translate(40)" fill="#ffce52"/>
    <path id="Shape-3" data-name="Shape" d="M227.847,31.682c-1.387,9.837-8.466,19.818-18.562,22.041l-1.871.413.342-1.883c1.8-9.868,8.689-18.886,18.444-21.961l1.928-.609Z" transform="translate(40)" fill="#ffce52"/>
    <path id="Shape-4" data-name="Shape" d="M217.326,10.07a26.569,26.569,0,0,1-3.165,26.491l-1.356,1.75-.837-2.048c-3.525-8.644-2.646-19.02,3.18-26.47l1.323-1.69Z" transform="translate(40)" fill="#ffce52"/>
  </g>
</svg>
